<svg width="227" height="55" viewBox="0 0 227 55" fill="none" xmlns="http://www.w3.org/2000/svg">
<path d="M5.36809 0.298828L0 24.4845H5.22448L6.39271 18.0093H11.5157L12.8166 24.4845H18.1946L12.5271 0.298828H5.36809ZM7.04057 14.5736C7.70664 11.0024 8.70834 5.81753 8.86185 3.82336H9.04918C9.41864 6.56045 10.1472 10.4628 10.9095 14.5736H7.04057Z" fill="white"/>
<path d="M26.9681 14.1876H29.8728V17.7109C29.8728 20.1923 29.3307 21.5434 27.1108 21.5434C25.2617 21.5434 24.4914 20.5327 24.4914 18.6021V6.25748C24.4914 4.32953 25.2876 3.39933 27.1523 3.39933C29.4863 3.39933 29.7457 4.86998 29.7457 6.14315V7.10973H34.8651V6.33023C34.8651 3.73191 34.1285 0.0137154 27.1575 0.0137154C21.3923 0.000723753 19.2812 2.90045 19.2812 6.8421V18.189C19.2812 22.2761 20.8529 24.8485 25.7389 24.8485C27.8836 24.8485 29.8105 24.2898 30.7312 22.6841C30.7701 23.2975 30.8639 23.9062 31.0113 24.5029H35.0077V10.989H26.9681V14.1876Z" fill="white"/>
<path d="M43.2717 13.722H50.5863V10.1425H43.2717V3.75988H50.9918V0.298828H38.1406V24.4845H51.0515L51.7014 21.0547H43.2717V13.722Z" fill="white"/>
<path d="M64.5153 6.62066C64.5153 10.5857 64.5153 13.9817 64.7747 16.949H64.7176C64.3649 15.6706 60.4048 3.75732 59.0795 0.353516H53.1406V24.4841H57.9099V17.8844C57.9099 13.5452 57.9307 10.2739 57.6895 7.35339H57.7387C58.0707 8.36673 62.5003 21.6026 63.5376 24.4841H69.2431V0.353516H64.5153V6.62066Z" fill="white"/>
<path d="M79.5851 0.353516H72.4844V24.4841H79.5748C87.4717 24.4841 88.3405 20.4255 88.3405 16.7385V7.48331C88.3405 3.0064 86.6392 0.353516 79.5851 0.353516ZM83.1277 17.2426C83.1277 19.7422 82.6091 21.3168 79.2376 21.3168H77.596V3.55205H79.2065C82.5779 3.55205 83.12 4.97073 83.12 7.1897L83.1277 17.2426Z" fill="white"/>
<path d="M94.707 0.353516L89.3594 24.4841H94.5669L95.7314 18.0299H100.838L102.135 24.4841H107.495L101.943 0.353516H94.707ZM96.3797 14.6053C97.0411 11.0456 98.0395 5.87754 98.1822 3.88983H98.3689C98.7475 6.61807 99.4737 10.5078 100.234 14.6053H96.3797Z" fill="white"/>
<path d="M226.106 0H110.07V24.4599H226.106V0Z" fill="white"/>
<path d="M4.02628 34.5807H0V29.8291H16.1078V34.5833H12.0762V53.9907H4.02628V34.5807Z" fill="white"/>
<path d="M26.0637 43.8241V53.9991H18.1953V29.8867H28.0088C34.4923 29.8867 36.5256 32.2772 36.5256 36.0785V36.949C36.5256 39.6642 35.2807 41.0387 33.3383 41.7636C35.7294 42.5587 36.3752 43.8995 36.3752 47.4124C36.3752 50.3069 36.3259 53.0585 36.4763 54.0017H28.8024C28.4523 53.5652 28.3537 51.8997 28.3537 46.3965C28.3537 44.0086 28.0555 43.8267 26.4605 43.8267L26.0637 43.8241ZM26.113 39.5525H26.7095C28.0062 39.5525 28.5534 39.2251 28.5534 37.7051V35.7875C28.5534 34.4468 28.1048 34.1584 26.5617 34.1584H26.113V39.5525Z" fill="white"/>
<path d="M46.6472 48.9298L46.2478 53.9991H38.1797L41.7145 29.8867H54.3159L57.8041 54.0017H49.6348L49.2354 48.9324L46.6472 48.9298ZM48.8879 44.1489C48.7375 42.3041 48.141 36.0032 47.9906 34.7014H47.6431C47.5938 35.7407 47.0958 41.7974 46.9454 44.1489H48.8879Z" fill="white"/>
<path d="M59.6562 53.9991V29.8867H67.9241C68.7228 32.5318 71.2125 42.0157 71.4122 43.0316H71.7597C71.2125 39.2277 70.5642 33.0021 70.5642 30.7572V29.8867H77.9865V53.9991H69.0704C68.671 51.9205 66.3317 40.8205 66.1813 40.0228H65.7819C66.0412 42.7016 66.6792 50.6317 66.6792 53.4197V53.9991H59.6562Z" fill="white"/>
<path d="M87.1511 46.1059V48.0599C87.1511 49.5097 87.4987 49.8787 88.2456 49.8787C88.9432 49.8787 89.1922 49.372 89.1922 48.4678C89.1922 46.649 88.8939 46.1137 85.857 44.0507C81.8217 41.299 79.9285 39.8934 79.9285 36.3752C79.9285 32.5011 81.9202 29.5312 88.3467 29.5312C95.419 29.5312 96.6638 32.6804 96.6638 35.9387V37.4223H89.6927V35.5749C89.6927 34.3433 89.3919 34.016 88.6553 34.016C88.0588 34.016 87.7087 34.3771 87.7087 35.4632C87.7087 36.7312 88.007 37.2379 90.4992 38.867C95.0299 41.8005 97.1721 43.3205 97.1721 47.1583C97.1721 51.5754 95.3308 54.3634 88.3078 54.3634C82.0318 54.3634 79.6406 51.8638 79.6406 47.5558V46.1085L87.1511 46.1059Z" fill="white"/>
<path d="M98.4375 29.8867H108.35C114.128 29.8867 116.768 32.3863 116.768 36.4761V38.0714C116.768 42.5587 114.377 44.9492 108.209 44.9492H106.366V53.9991H98.4375V29.8867ZM106.358 40.3138H107.006C108.303 40.3138 108.749 39.8435 108.749 38.3962V35.7979C108.749 34.4987 108.051 34.1688 106.957 34.1688H106.358V40.3138Z" fill="white"/>
<path d="M125.1 48.9298L124.709 53.9991H116.633L120.17 29.8867H132.772L136.26 54.0017H128.08L127.681 48.9324L125.1 48.9298ZM127.344 44.1489C127.193 42.3041 126.597 36.0032 126.446 34.7014H126.096C126.047 35.7407 125.549 41.7974 125.401 44.1489H127.344Z" fill="white"/>
<path d="M145.978 43.8241V53.9991H138.109V29.8867H147.92C154.404 29.8867 156.44 32.2772 156.44 36.0785V36.949C156.44 39.6642 155.192 41.0387 153.25 41.7636C155.641 42.5587 156.289 43.8995 156.289 47.4124C156.289 50.3069 156.24 53.0585 156.388 54.0017H148.719C148.369 53.5652 148.27 51.8997 148.27 46.3965C148.27 44.0086 147.97 43.8267 146.377 43.8267L145.978 43.8241ZM146.027 39.5525H146.626C147.923 39.5525 148.467 39.2251 148.467 37.7051V35.7875C148.467 34.4468 148.021 34.1584 146.476 34.1584H146.027V39.5525Z" fill="white"/>
<path d="M225.759 43.5269H219.694V49.2365H227.002L226.106 53.9907H211.789V29.8291H226.06V34.5833H219.694V38.7779H225.759V43.5269Z" fill="white"/>
<path d="M174.203 53.9991V29.8867H182.471C183.267 32.5318 185.759 42.0157 185.959 43.0316H186.307C185.759 39.2277 185.111 33.0021 185.111 30.7572V29.8867H192.533V53.9991H183.617C183.218 51.9205 180.879 40.8205 180.728 40.0228H180.329C180.588 42.7016 181.226 50.6317 181.226 53.4197V53.9991H174.203Z" fill="white"/>
<path d="M198.122 34.6287H194.188V29.8867H209.927V34.6313H205.993V53.9991H198.122V34.6287Z" fill="white"/>
<path d="M172.09 43.5171H166.014V49.2546H173.338L172.441 53.9991H158.094V29.8867H172.391V34.6313H166.014V38.7778H172.09V43.5171Z" fill="white"/>
</svg>
