<svg width="37" height="28" viewBox="0 0 37 28" fill="none" xmlns="http://www.w3.org/2000/svg">
<path d="M4.21135e-07 27.1777L1.01074 20.4395C1.42253 17.7067 2.18994 15.105 3.31299 12.6343C4.47347 10.1636 5.896 7.86133 7.58057 5.72754C9.30257 3.59375 11.2305 1.68457 13.3643 3.20815e-07L19.1479 4.26758C17.2388 6.66341 15.5729 9.17155 14.1504 11.792C12.7653 14.375 11.792 17.1826 11.2305 20.2148L9.99512 27.1777L4.21135e-07 27.1777ZM17.1265 27.1777L18.1372 20.4395C18.549 17.7067 19.3164 15.105 20.4395 12.6343C21.5999 10.1636 23.0225 7.86133 24.707 5.72754C26.429 3.59375 28.3569 1.68457 30.4907 7.31943e-07L36.2744 4.26758C34.3652 6.66341 32.6994 9.17155 31.2769 11.792C29.8918 14.375 28.9185 17.1826 28.3569 20.2148L27.1216 27.1777L17.1265 27.1777Z" fill="#FFE706"/>
</svg>
