<svg width="160" height="98" viewBox="0 0 160 98" fill="none" xmlns="http://www.w3.org/2000/svg">
<path d="M4.58515 92.5906C4.58515 92.9086 4.50541 93.2039 4.34593 93.4764C4.19284 93.7425 3.98552 93.9567 3.72398 94.1189C3.46244 94.2746 3.17539 94.3525 2.86281 94.3525H2.09733C1.78476 94.3525 1.49452 94.2746 1.2266 94.1189C0.965059 93.9567 0.757741 93.7425 0.604644 93.4764C0.451548 93.2039 0.375 92.9086 0.375 92.5906V87.5386H1.33185V92.5906C1.33185 92.8048 1.40521 92.9897 1.55193 93.1455C1.70502 93.2947 1.88683 93.3694 2.09733 93.3694H2.86281C3.07332 93.3694 3.25193 93.2947 3.39865 93.1455C3.55175 92.9897 3.6283 92.8048 3.6283 92.5906V87.5386H4.58515V92.5906Z" fill="black"/>
<path d="M10.3225 87.5386V94.3525H9.36567V89.6801L8.4758 91.6075H7.9591L7.06922 89.6801V94.3525H6.11237V87.5386H7.06922L8.21745 90.0792L9.36567 87.5386H10.3225Z" fill="black"/>
<path d="M18.544 92.1526V92.542C18.544 92.7691 18.6237 92.967 18.7832 93.1357C18.949 93.298 19.1436 93.3791 19.3669 93.3791H20.0079C20.2504 93.3791 20.4481 93.311 20.6012 93.1747C20.7607 93.0319 20.8404 92.8534 20.8404 92.6393C20.8404 92.4511 20.7798 92.2759 20.6586 92.1136C20.5374 91.9514 20.3843 91.8054 20.1993 91.6756C20.0207 91.5458 19.7719 91.3868 19.453 91.1986C19.0766 90.978 18.7704 90.7833 18.5344 90.6146C18.2984 90.4394 18.0974 90.2317 17.9316 89.9916C17.7657 89.745 17.6828 89.4659 17.6828 89.1545C17.6828 88.843 17.7562 88.5639 17.9029 88.3173C18.056 88.0707 18.2665 87.8793 18.5344 87.743C18.8087 87.6067 19.1181 87.5386 19.4625 87.5386H19.9123C20.2376 87.5386 20.5374 87.6197 20.8117 87.7819C21.086 87.9442 21.3029 88.1648 21.4624 88.4439C21.6218 88.7164 21.7016 89.0182 21.7016 89.3491V89.6412H20.7447V89.3491C20.7447 89.1155 20.6618 88.9176 20.4959 88.7553C20.3365 88.5931 20.1419 88.512 19.9123 88.512H19.4625C19.2074 88.512 19.0064 88.5704 18.8597 88.6872C18.713 88.7975 18.6397 88.9533 18.6397 89.1545C18.6397 89.3491 18.7321 89.5244 18.9171 89.6801C19.1085 89.8358 19.4083 90.0338 19.8166 90.2739C20.2248 90.514 20.5597 90.7314 20.8213 90.9261C21.0892 91.1208 21.3188 91.3641 21.5102 91.6561C21.7016 91.9417 21.7973 92.2694 21.7973 92.6393C21.7973 92.9573 21.7175 93.2493 21.5581 93.5154C21.405 93.775 21.1913 93.9794 20.917 94.1286C20.6427 94.2779 20.3397 94.3525 20.0079 94.3525H19.3669C19.0415 94.3525 18.7417 94.2714 18.4674 94.1092C18.1995 93.9469 17.9858 93.7295 17.8263 93.457C17.6669 93.1779 17.5871 92.8729 17.5871 92.542V92.1526H18.544Z" fill="black"/>
<path d="M24.2813 88.512V90.2934H27.1519V91.2668H24.2813V93.3791H27.5346V94.3525H23.3245V91.2668V88.512V87.5386H27.5346V88.512H24.2813Z" fill="black"/>
<path d="M33.272 89.8748C33.272 90.2771 33.154 90.6341 32.918 90.9455C32.6883 91.2506 32.3885 91.455 32.0185 91.5588L33.272 94.3525H32.2195L31.0043 91.6269H30.0187V94.3525H29.0619V87.5386H30.0187H31.5497C31.8622 87.5386 32.1493 87.6164 32.4108 87.7722C32.6788 87.9279 32.8893 88.1421 33.0424 88.4147C33.1955 88.6807 33.272 88.9727 33.272 89.2907V89.8748ZM32.3152 89.2907C32.3152 89.0701 32.2418 88.8851 32.0951 88.7359C31.9484 88.5866 31.7666 88.512 31.5497 88.512H30.0187V90.6535H31.5497C31.7666 90.6535 31.9484 90.5789 32.0951 90.4296C32.2418 90.2804 32.3152 90.0954 32.3152 89.8748V89.2907Z" fill="black"/>
<path d="M39.0094 87.5386V89.7774L37.3827 94.3525H36.4259L34.7992 89.7774V87.5386H35.7561V89.6022L36.8947 92.8145H36.9139L38.0525 89.6022V87.5386H39.0094Z" fill="black"/>
<path d="M43.1201 88.512V93.3791H44.7467V94.3525H42.1632H40.5366V93.3791H42.1632V88.512H40.5366V87.5386H43.1201H44.7467V88.512H43.1201Z" fill="black"/>
<path d="M49.5273 89.8261V89.2907C49.5273 89.0701 49.4539 88.8851 49.3072 88.7359C49.1605 88.5866 48.9787 88.512 48.7618 88.512H47.9963C47.7794 88.512 47.5976 88.5899 47.4509 88.7456C47.3042 88.8949 47.2308 89.0766 47.2308 89.2907V92.5906C47.2308 92.8048 47.3042 92.9897 47.4509 93.1455C47.604 93.2947 47.7858 93.3694 47.9963 93.3694H48.7618C48.9723 93.3694 49.1509 93.2947 49.2976 93.1455C49.4507 92.9897 49.5273 92.8048 49.5273 92.5906V92.0552H50.4841V92.5906C50.4841 92.8956 50.4108 93.1779 50.264 93.4375C50.1237 93.6971 49.9291 93.9112 49.6804 94.08C49.438 94.2422 49.17 94.333 48.8766 94.3525L48.8383 94.5861H48.9245C49.1413 94.5861 49.3423 94.6413 49.5273 94.7516C49.7123 94.8684 49.859 95.0209 49.9674 95.2091C50.0759 95.4038 50.1301 95.6147 50.1301 95.8419C50.1301 96.0625 50.0759 96.2669 49.9674 96.4551C49.859 96.6433 49.7123 96.7926 49.5273 96.9029C49.3423 97.0197 49.1413 97.0781 48.9245 97.0781H47.8336V96.1047H48.9245C48.9882 96.1047 49.0457 96.0755 49.0967 96.0171C49.1477 95.9651 49.1732 95.9067 49.1732 95.8419C49.1732 95.764 49.1477 95.6958 49.0967 95.6374C49.052 95.5855 48.9946 95.5596 48.9245 95.5596H48.1972L47.7858 94.7711L47.9198 94.3525C47.6199 94.3395 47.3425 94.2519 47.0873 94.0897C46.8385 93.9275 46.6408 93.7133 46.494 93.4472C46.3473 93.1812 46.274 92.8956 46.274 92.5906V89.2907C46.274 88.9727 46.3505 88.6807 46.5036 88.4147C46.6631 88.1421 46.8736 87.9279 47.1351 87.7722C47.3967 87.6164 47.6837 87.5386 47.9963 87.5386H48.7618C49.0744 87.5386 49.3614 87.6164 49.623 87.7722C49.8909 87.9279 50.1014 88.1421 50.2545 88.4147C50.4076 88.6807 50.4841 88.9727 50.4841 89.2907V89.8261H49.5273Z" fill="black"/>
<path d="M53.7337 94.3525C53.4211 94.3525 53.1341 94.2746 52.8725 94.1189C52.611 93.9567 52.4005 93.7425 52.241 93.4764C52.0879 93.2039 52.0113 92.9086 52.0113 92.5906V89.2907C52.0113 88.9727 52.0879 88.6807 52.241 88.4147C52.4005 88.1421 52.611 87.9279 52.8725 87.7722C53.1341 87.6164 53.4211 87.5386 53.7337 87.5386H54.4992C54.8117 87.5386 55.0988 87.6164 55.3603 87.7722C55.6283 87.9279 55.8388 88.1421 55.9918 88.4147C56.1449 88.6807 56.2215 88.9727 56.2215 89.2907V92.5906C56.2215 92.9086 56.1449 93.2039 55.9918 93.4764C55.8388 93.7425 55.6283 93.9567 55.3603 94.1189C55.0988 94.2746 54.8117 94.3525 54.4992 94.3525H53.7337ZM54.4992 93.3694C54.7097 93.3694 54.8883 93.2947 55.035 93.1455C55.1881 92.9897 55.2646 92.8048 55.2646 92.5906V89.2907C55.2646 89.0701 55.1913 88.8851 55.0446 88.7359C54.8979 88.5866 54.716 88.512 54.4992 88.512H53.7337C53.5168 88.512 53.335 88.5899 53.1883 88.7456C53.0416 88.8949 52.9682 89.0766 52.9682 89.2907V92.5906C52.9682 92.8048 53.0416 92.9897 53.1883 93.1455C53.3414 93.2947 53.5232 93.3694 53.7337 93.3694H54.4992Z" fill="black"/>
<path d="M65.9739 87.5386C66.2865 87.5386 66.5735 87.6164 66.8351 87.7722C67.0966 87.9279 67.3039 88.1421 67.457 88.4147C67.6165 88.6807 67.6962 88.9727 67.6962 89.2907V92.5906C67.6962 92.9086 67.6165 93.2039 67.457 93.4764C67.3039 93.7425 67.0966 93.9567 66.8351 94.1189C66.5735 94.2746 66.2865 94.3525 65.9739 94.3525H64.1559H63.4861V87.5386H64.4429H65.9739ZM66.7394 89.2907C66.7394 89.0766 66.666 88.8949 66.5193 88.7456C66.3726 88.5899 66.1908 88.512 65.9739 88.512H64.4429V93.3694H65.9739C66.1844 93.3694 66.363 93.2947 66.5097 93.1455C66.6628 92.9897 66.7394 92.8048 66.7394 92.5906V89.2907Z" fill="black"/>
<path d="M73.4336 92.1136V94.3525H72.4768V92.7756H70.1803V94.3525H69.2235V92.1136L70.8501 87.5386H71.807L73.4336 92.1136ZM70.3525 91.8022H72.3045L71.3381 89.0766H71.319L70.3525 91.8022Z" fill="black"/>
<path d="M81.6551 88.512V90.5854H84.5256V91.5588H81.6551V94.3525H80.6982V90.5854V87.5386H84.9083V88.512H81.6551Z" fill="black"/>
<path d="M89.0191 88.512V93.3791H90.6457V94.3525H88.0622H86.4356V93.3791H88.0622V88.512H86.4356V87.5386H89.0191H90.6457V88.512H89.0191Z" fill="black"/>
<path d="M96.3831 92.5906C96.3831 92.8762 96.3193 93.1422 96.1917 93.3888C96.0705 93.6354 95.9047 93.8398 95.6942 94.0021L96.3831 95.1507L95.5411 95.6277L94.766 94.3525H94.6608H93.8953C93.5827 94.3525 93.2957 94.2746 93.0341 94.1189C92.7726 93.9567 92.5621 93.7425 92.4026 93.4764C92.2495 93.2039 92.173 92.9086 92.173 92.5906V89.2907C92.173 88.9727 92.2495 88.6807 92.4026 88.4147C92.5621 88.1421 92.7726 87.9279 93.0341 87.7722C93.2957 87.6164 93.5827 87.5386 93.8953 87.5386H94.6608C94.9733 87.5386 95.2604 87.6164 95.5219 87.7722C95.7898 87.9279 96.0004 88.1421 96.1535 88.4147C96.3065 88.6807 96.3831 88.9727 96.3831 89.2907V92.5906ZM93.1298 92.5906C93.1298 92.8048 93.2032 92.9897 93.3499 93.1455C93.503 93.2947 93.6848 93.3694 93.8953 93.3694H94.6608C94.8713 93.3694 95.0499 93.2947 95.1966 93.1455C95.3497 92.9897 95.4262 92.8048 95.4262 92.5906V89.2907C95.4262 89.0701 95.3529 88.8851 95.2062 88.7359C95.0595 88.5866 94.8777 88.512 94.6608 88.512H93.8953C93.6784 88.512 93.4966 88.5899 93.3499 88.7456C93.2032 88.8949 93.1298 89.0766 93.1298 89.2907V92.5906Z" fill="black"/>
<path d="M102.12 92.5906C102.12 92.9086 102.041 93.2039 101.881 93.4764C101.728 93.7425 101.521 93.9567 101.259 94.1189C100.998 94.2746 100.711 94.3525 100.398 94.3525H99.6327C99.3201 94.3525 99.0298 94.2746 98.7619 94.1189C98.5004 93.9567 98.2931 93.7425 98.14 93.4764C97.9869 93.2039 97.9103 92.9086 97.9103 92.5906V87.5386H98.8672V92.5906C98.8672 92.8048 98.9405 92.9897 99.0872 93.1455C99.2403 93.2947 99.4221 93.3694 99.6327 93.3694H100.398C100.609 93.3694 100.787 93.2947 100.934 93.1455C101.087 92.9897 101.164 92.8048 101.164 92.5906V87.5386H102.12V92.5906Z" fill="black"/>
<path d="M104.605 88.512V90.2934H107.475V91.2668H104.605V93.3791H107.858V94.3525H103.648V91.2668V88.512V87.5386H107.858V88.512H104.605Z" fill="black"/>
<path d="M113.595 87.5386V94.3525H112.638V89.6801L111.748 91.6075H111.232L110.342 89.6801V94.3525H109.385V87.5386H110.342L111.49 90.0792L112.638 87.5386H113.595Z" fill="black"/>
<path d="M121.817 92.1526V92.542C121.817 92.7691 121.896 92.967 122.056 93.1357C122.222 93.298 122.416 93.3791 122.64 93.3791H123.281C123.523 93.3791 123.721 93.311 123.874 93.1747C124.033 93.0319 124.113 92.8534 124.113 92.6393C124.113 92.4511 124.053 92.2759 123.931 92.1136C123.81 91.9514 123.657 91.8054 123.472 91.6756C123.293 91.5458 123.045 91.3868 122.726 91.1986C122.349 90.978 122.043 90.7833 121.807 90.6146C121.571 90.4394 121.37 90.2317 121.204 89.9916C121.038 89.745 120.955 89.4659 120.955 89.1545C120.955 88.843 121.029 88.5639 121.176 88.3173C121.329 88.0707 121.539 87.8793 121.807 87.743C122.081 87.6067 122.391 87.5386 122.735 87.5386H123.185C123.51 87.5386 123.81 87.6197 124.084 87.7819C124.359 87.9442 124.576 88.1648 124.735 88.4439C124.895 88.7164 124.974 89.0182 124.974 89.3491V89.6412H124.017V89.3491C124.017 89.1155 123.934 88.9176 123.769 88.7553C123.609 88.5931 123.415 88.512 123.185 88.512H122.735C122.48 88.512 122.279 88.5704 122.132 88.6872C121.986 88.7975 121.912 88.9533 121.912 89.1545C121.912 89.3491 122.005 89.5244 122.19 89.6801C122.381 89.8358 122.681 90.0338 123.089 90.2739C123.498 90.514 123.832 90.7314 124.094 90.9261C124.362 91.1208 124.592 91.3641 124.783 91.6561C124.974 91.9417 125.07 92.2694 125.07 92.6393C125.07 92.9573 124.99 93.2493 124.831 93.5154C124.678 93.775 124.464 93.9794 124.19 94.1286C123.915 94.2779 123.612 94.3525 123.281 94.3525H122.64C122.314 94.3525 122.014 94.2714 121.74 94.1092C121.472 93.9469 121.259 93.7295 121.099 93.457C120.94 93.1779 120.86 92.8729 120.86 92.542V92.1526H121.817Z" fill="black"/>
<path d="M130.807 92.1136V94.3525H129.85V92.7756H127.554V94.3525H126.597V92.1136L128.224 87.5386H129.181L130.807 92.1136ZM127.726 91.8022H129.678L128.712 89.0766H128.693L127.726 91.8022Z" fill="black"/>
<path d="M135.913 90.8482C136.111 91.0104 136.264 91.2116 136.372 91.4517C136.487 91.6853 136.545 91.9384 136.545 92.211V92.6004C136.545 92.9183 136.468 93.2136 136.315 93.4862C136.162 93.7522 135.951 93.9631 135.684 94.1189C135.422 94.2746 135.135 94.3525 134.822 94.3525H132.966H132.335V87.5386H133.291H134.631C134.944 87.5386 135.231 87.6164 135.492 87.7722C135.76 87.9279 135.971 88.1421 136.124 88.4147C136.277 88.6807 136.353 88.9727 136.353 89.2907V89.6801C136.353 89.9007 136.315 90.1149 136.239 90.3226C136.162 90.5237 136.054 90.6989 135.913 90.8482ZM133.291 88.512V90.4588H134.631C134.848 90.4588 135.03 90.3842 135.176 90.2349C135.323 90.0857 135.396 89.9007 135.396 89.6801V89.2907C135.396 89.0701 135.323 88.8851 135.176 88.7359C135.03 88.5866 134.848 88.512 134.631 88.512H133.291ZM135.588 92.211C135.588 91.9904 135.514 91.8054 135.368 91.6561C135.221 91.5069 135.039 91.4323 134.822 91.4323H133.291V93.3791H134.822C135.039 93.3791 135.221 93.3045 135.368 93.1552C135.514 93.006 135.588 92.821 135.588 92.6004V92.211Z" fill="black"/>
<path d="M139.029 88.512V90.2934H141.899V91.2668H139.029V93.3791H142.282V94.3525H138.072V91.2668V88.512V87.5386H142.282V88.512H139.029Z" fill="black"/>
<path d="M148.019 87.5386V94.3525H146.632L144.766 89.1739V94.3525H143.809V87.5386H145.197L147.063 92.7172V87.5386H148.019Z" fill="black"/>
<path d="M152.035 87.5386C152.347 87.5386 152.634 87.6164 152.896 87.7722C153.157 87.9279 153.365 88.1421 153.518 88.4147C153.677 88.6807 153.757 88.9727 153.757 89.2907V92.5906C153.757 92.9086 153.677 93.2039 153.518 93.4764C153.365 93.7425 153.157 93.9567 152.896 94.1189C152.634 94.2746 152.347 94.3525 152.035 94.3525H150.216H149.547V87.5386H150.504H152.035ZM152.8 89.2907C152.8 89.0766 152.727 88.8949 152.58 88.7456C152.433 88.5899 152.251 88.512 152.035 88.512H150.504V93.3694H152.035C152.245 93.3694 152.424 93.2947 152.57 93.1455C152.723 92.9897 152.8 92.8048 152.8 92.5906V89.2907Z" fill="black"/>
<path d="M157.006 94.3525C156.694 94.3525 156.407 94.2746 156.145 94.1189C155.884 93.9567 155.673 93.7425 155.514 93.4764C155.361 93.2039 155.284 92.9086 155.284 92.5906V89.2907C155.284 88.9727 155.361 88.6807 155.514 88.4147C155.673 88.1421 155.884 87.9279 156.145 87.7722C156.407 87.6164 156.694 87.5386 157.006 87.5386H157.772C158.084 87.5386 158.371 87.6164 158.633 87.7722C158.901 87.9279 159.111 88.1421 159.265 88.4147C159.418 88.6807 159.494 88.9727 159.494 89.2907V92.5906C159.494 92.9086 159.418 93.2039 159.265 93.4764C159.111 93.7425 158.901 93.9567 158.633 94.1189C158.371 94.2746 158.084 94.3525 157.772 94.3525H157.006ZM157.772 93.3694C157.982 93.3694 158.161 93.2947 158.308 93.1455C158.461 92.9897 158.537 92.8048 158.537 92.5906V89.2907C158.537 89.0701 158.464 88.8851 158.317 88.7359C158.171 88.5866 157.989 88.512 157.772 88.512H157.006C156.79 88.512 156.608 88.5899 156.461 88.7456C156.314 88.8949 156.241 89.0766 156.241 89.2907V92.5906C156.241 92.8048 156.314 92.9897 156.461 93.1455C156.614 93.2947 156.796 93.3694 157.006 93.3694H157.772Z" fill="black"/>
<path d="M0 47.6113H59.038V76.9371H0V47.6113Z" fill="black"/>
<path d="M0 7.10278H8.79821C17.5186 7.10278 19.638 10.3697 19.638 15.8953V27.2954C19.638 31.8419 18.5589 36.844 8.78849 36.844H0V7.10278ZM6.3386 32.9373H8.37045C12.5411 32.9373 13.173 30.9985 13.173 27.9158V15.5269C13.173 12.7932 12.5022 11.0482 8.33156 11.0482H6.3386V32.9373Z" fill="black"/>
<path d="M42.5036 14.9937V28.8852C42.5036 34.5853 39.1593 37.2802 32.1985 37.2802C25.2377 37.2802 22.5059 34.5175 22.5059 28.9628V14.9646C22.5059 9.26455 26.4724 6.66655 32.5971 6.66655C38.7218 6.66655 42.5036 9.27424 42.5036 14.9937ZM28.9612 14.5478V29.5056C28.9612 31.9776 30.1958 33.1409 32.4805 33.1409C34.9401 33.1409 36.0483 32.0552 36.0483 29.4475V14.5187C36.0483 12.1534 35.047 10.8544 32.4707 10.8544C30.1861 10.8544 28.9612 12.037 28.9612 14.5575V14.5478Z" fill="black"/>
<path d="M45.9743 36.844V7.10278H53.3142C54.9572 11.3003 59.857 25.977 60.2945 27.5572H60.3625C60.0709 23.9025 60.0514 19.7147 60.0514 14.8289V7.10278H65.9039V36.844H58.8362C57.5432 33.2863 52.0698 16.981 51.6615 15.7305H51.6032C51.9046 19.3269 51.8754 23.3596 51.8754 28.7107V36.844H45.9743Z" fill="black"/>
<path d="M68.6941 16.4284C69.8801 12.7835 70.5995 8.74107 70.5995 5.81348H76.384C76.2187 10.1176 74.4688 14.6641 73.3216 16.4284H68.6941Z" fill="black"/>
<path d="M84.9975 11.3585H78.3964V7.10278H97.9761V11.3585H91.3361V36.844H84.9975V11.3585Z" fill="black"/>
<path d="M69.4112 51.6982H62.9297V47.5227H82.1545V51.6982H75.6349V76.7032H69.4112V51.6982Z" fill="black"/>
<path d="M103.642 55.2649V68.8945C103.642 74.4871 100.358 77.1312 93.5234 77.1312C86.6887 77.1312 84.0064 74.4205 84.0064 68.9706V55.2363C84.0064 49.6437 87.901 47.0947 93.9147 47.0947C99.9285 47.0947 103.642 49.6532 103.642 55.2649ZM90.3447 54.8274V69.5032C90.3447 71.9285 91.557 73.0699 93.8002 73.0699C96.2152 73.0699 97.3034 72.0046 97.3034 69.4461V54.7988C97.3034 52.4781 96.3202 51.2036 93.7906 51.2036C91.5474 51.2036 90.3447 52.3639 90.3447 54.8369V54.8274Z" fill="black"/>
<path d="M134.331 65.8509C134.331 60.8955 134.407 54.7132 134.531 51.3748H134.474C133.548 56.4348 131.314 68.2572 129.568 76.7127H123.697C122.399 69.1322 120.136 56.6725 119.22 51.3367H119.096C119.22 54.7418 119.401 61.3425 119.401 66.355V76.7032H113.76V47.5227H123.029C124.604 54.9415 126.217 63.2543 126.761 67.3441H126.818C127.477 63.2067 129.663 54.523 131.276 47.5227H140.24V76.7032H134.331V65.8509Z" fill="black"/>
<path d="M158.643 63.3779H149.775V72.5658H159.998L159.206 76.7032H143.542V47.5227H159.13V51.6982H149.765V59.2311H158.633V63.3684L158.643 63.3779Z" fill="black"/>
<path d="M101.844 0.921875H159.552V42.3781H101.844V0.921875Z" fill="black"/>
<path d="M107.219 7.25146H113.553V32.9471H123.88L123.345 37.0565H107.219V7.25146Z" fill="#FFE706"/>
<path d="M132.246 29.0938L130.808 37.0697H124.367L130.983 7.26465H139.93L146.799 37.0697H140.183L138.57 29.0938H132.256H132.246ZM137.812 24.8679C136.87 19.8065 135.976 14.9976 135.51 11.6363H135.277C135.102 14.0942 133.868 20.4768 133.043 24.8679H137.812Z" fill="#FFE706"/>
<path d="M154.943 7.25146V37.0565H148.609V7.25146H154.943Z" fill="#FFE706"/>
</svg>
