<svg width="160" height="97" viewBox="0 0 160 97" fill="none" xmlns="http://www.w3.org/2000/svg">
<path d="M4.58515 91.6692C4.58515 91.9872 4.50541 92.2825 4.34593 92.5551C4.19284 92.8211 3.98552 93.0353 3.72398 93.1975C3.46244 93.3533 3.17539 93.4311 2.86281 93.4311H2.09733C1.78476 93.4311 1.49452 93.3533 1.2266 93.1975C0.965059 93.0353 0.757741 92.8211 0.604644 92.5551C0.451548 92.2825 0.375 91.9872 0.375 91.6692V86.6172H1.33185V91.6692C1.33185 91.8834 1.40521 92.0683 1.55193 92.2241C1.70502 92.3733 1.88683 92.448 2.09733 92.448H2.86281C3.07332 92.448 3.25193 92.3733 3.39865 92.2241C3.55175 92.0683 3.6283 91.8834 3.6283 91.6692V86.6172H4.58515V91.6692Z" fill="black"/>
<path d="M10.3225 86.6172V93.4311H9.36567V88.7587L8.4758 90.6861H7.9591L7.06922 88.7587V93.4311H6.11237V86.6172H7.06922L8.21745 89.1578L9.36567 86.6172H10.3225Z" fill="black"/>
<path d="M18.544 91.2312V91.6206C18.544 91.8477 18.6237 92.0456 18.7832 92.2144C18.949 92.3766 19.1436 92.4577 19.3669 92.4577H20.0079C20.2504 92.4577 20.4481 92.3896 20.6012 92.2533C20.7607 92.1105 20.8404 91.9321 20.8404 91.7179C20.8404 91.5297 20.7798 91.3545 20.6586 91.1923C20.5374 91.03 20.3843 90.884 20.1993 90.7542C20.0207 90.6244 19.7719 90.4654 19.453 90.2772C19.0766 90.0566 18.7704 89.8619 18.5344 89.6932C18.2984 89.518 18.0974 89.3103 17.9316 89.0702C17.7657 88.8236 17.6828 88.5446 17.6828 88.2331C17.6828 87.9216 17.7562 87.6425 17.9029 87.3959C18.056 87.1493 18.2665 86.9579 18.5344 86.8216C18.8087 86.6853 19.1181 86.6172 19.4625 86.6172H19.9123C20.2376 86.6172 20.5374 86.6983 20.8117 86.8605C21.086 87.0228 21.3029 87.2434 21.4624 87.5225C21.6218 87.795 21.7016 88.0968 21.7016 88.4277V88.7198H20.7447V88.4277C20.7447 88.1941 20.6618 87.9962 20.4959 87.834C20.3365 87.6717 20.1419 87.5906 19.9123 87.5906H19.4625C19.2074 87.5906 19.0064 87.649 18.8597 87.7658C18.713 87.8761 18.6397 88.0319 18.6397 88.2331C18.6397 88.4277 18.7321 88.603 18.9171 88.7587C19.1085 88.9145 19.4083 89.1124 19.8166 89.3525C20.2248 89.5926 20.5597 89.81 20.8213 90.0047C21.0892 90.1994 21.3188 90.4427 21.5102 90.7348C21.7016 91.0203 21.7973 91.348 21.7973 91.7179C21.7973 92.0359 21.7175 92.3279 21.5581 92.594C21.405 92.8536 21.1913 93.058 20.917 93.2072C20.6427 93.3565 20.3397 93.4311 20.0079 93.4311H19.3669C19.0415 93.4311 18.7417 93.35 18.4674 93.1878C18.1995 93.0255 17.9858 92.8081 17.8263 92.5356C17.6669 92.2565 17.5871 91.9515 17.5871 91.6206V91.2312H18.544Z" fill="black"/>
<path d="M24.2813 87.5906V89.372H27.1519V90.3454H24.2813V92.4577H27.5346V93.4311H23.3245V90.3454V87.5906V86.6172H27.5346V87.5906H24.2813Z" fill="black"/>
<path d="M33.272 88.9534C33.272 89.3557 33.154 89.7127 32.918 90.0242C32.6883 90.3292 32.3885 90.5336 32.0185 90.6374L33.272 93.4311H32.2195L31.0043 90.7056H30.0187V93.4311H29.0619V86.6172H30.0187H31.5497C31.8622 86.6172 32.1493 86.6951 32.4108 86.8508C32.6788 87.0066 32.8893 87.2207 33.0424 87.4933C33.1955 87.7593 33.272 88.0514 33.272 88.3693V88.9534ZM32.3152 88.3693C32.3152 88.1487 32.2418 87.9638 32.0951 87.8145C31.9484 87.6652 31.7666 87.5906 31.5497 87.5906H30.0187V89.7321H31.5497C31.7666 89.7321 31.9484 89.6575 32.0951 89.5082C32.2418 89.359 32.3152 89.174 32.3152 88.9534V88.3693Z" fill="black"/>
<path d="M39.0094 86.6172V88.8561L37.3827 93.4311H36.4259L34.7992 88.8561V86.6172H35.7561V88.6808L36.8947 91.8931H36.9139L38.0525 88.6808V86.6172H39.0094Z" fill="black"/>
<path d="M43.1201 87.5906V92.4577H44.7467V93.4311H42.1632H40.5366V92.4577H42.1632V87.5906H40.5366V86.6172H43.1201H44.7467V87.5906H43.1201Z" fill="black"/>
<path d="M49.5273 88.9047V88.3693C49.5273 88.1487 49.4539 87.9638 49.3072 87.8145C49.1605 87.6652 48.9787 87.5906 48.7618 87.5906H47.9963C47.7794 87.5906 47.5976 87.6685 47.4509 87.8242C47.3042 87.9735 47.2308 88.1552 47.2308 88.3693V91.6692C47.2308 91.8834 47.3042 92.0683 47.4509 92.2241C47.604 92.3733 47.7858 92.448 47.9963 92.448H48.7618C48.9723 92.448 49.1509 92.3733 49.2976 92.2241C49.4507 92.0683 49.5273 91.8834 49.5273 91.6692V91.1339H50.4841V91.6692C50.4841 91.9742 50.4108 92.2565 50.264 92.5161C50.1237 92.7757 49.9291 92.9898 49.6804 93.1586C49.438 93.3208 49.17 93.4117 48.8766 93.4311L48.8383 93.6648H48.9245C49.1413 93.6648 49.3423 93.7199 49.5273 93.8302C49.7123 93.947 49.859 94.0995 49.9674 94.2877C50.0759 94.4824 50.1301 94.6933 50.1301 94.9205C50.1301 95.1411 50.0759 95.3455 49.9674 95.5337C49.859 95.7219 49.7123 95.8712 49.5273 95.9815C49.3423 96.0983 49.1413 96.1567 48.9245 96.1567H47.8336V95.1833H48.9245C48.9882 95.1833 49.0457 95.1541 49.0967 95.0957C49.1477 95.0438 49.1732 94.9854 49.1732 94.9205C49.1732 94.8426 49.1477 94.7745 49.0967 94.716C49.052 94.6641 48.9946 94.6382 48.9245 94.6382H48.1972L47.7858 93.8497L47.9198 93.4311C47.6199 93.4182 47.3425 93.3305 47.0873 93.1683C46.8385 93.0061 46.6408 92.7919 46.494 92.5258C46.3473 92.2598 46.274 91.9742 46.274 91.6692V88.3693C46.274 88.0514 46.3505 87.7593 46.5036 87.4933C46.6631 87.2207 46.8736 87.0066 47.1351 86.8508C47.3967 86.6951 47.6837 86.6172 47.9963 86.6172H48.7618C49.0744 86.6172 49.3614 86.6951 49.623 86.8508C49.8909 87.0066 50.1014 87.2207 50.2545 87.4933C50.4076 87.7593 50.4841 88.0514 50.4841 88.3693V88.9047H49.5273Z" fill="black"/>
<path d="M53.7337 93.4311C53.4211 93.4311 53.1341 93.3533 52.8725 93.1975C52.611 93.0353 52.4005 92.8211 52.241 92.5551C52.0879 92.2825 52.0113 91.9872 52.0113 91.6692V88.3693C52.0113 88.0514 52.0879 87.7593 52.241 87.4933C52.4005 87.2207 52.611 87.0066 52.8725 86.8508C53.1341 86.6951 53.4211 86.6172 53.7337 86.6172H54.4992C54.8117 86.6172 55.0988 86.6951 55.3603 86.8508C55.6283 87.0066 55.8388 87.2207 55.9918 87.4933C56.1449 87.7593 56.2215 88.0514 56.2215 88.3693V91.6692C56.2215 91.9872 56.1449 92.2825 55.9918 92.5551C55.8388 92.8211 55.6283 93.0353 55.3603 93.1975C55.0988 93.3533 54.8117 93.4311 54.4992 93.4311H53.7337ZM54.4992 92.448C54.7097 92.448 54.8883 92.3733 55.035 92.2241C55.1881 92.0683 55.2646 91.8834 55.2646 91.6692V88.3693C55.2646 88.1487 55.1913 87.9638 55.0446 87.8145C54.8979 87.6652 54.716 87.5906 54.4992 87.5906H53.7337C53.5168 87.5906 53.335 87.6685 53.1883 87.8242C53.0416 87.9735 52.9682 88.1552 52.9682 88.3693V91.6692C52.9682 91.8834 53.0416 92.0683 53.1883 92.2241C53.3414 92.3733 53.5232 92.448 53.7337 92.448H54.4992Z" fill="black"/>
<path d="M65.9739 86.6172C66.2865 86.6172 66.5735 86.6951 66.8351 86.8508C67.0966 87.0066 67.3039 87.2207 67.457 87.4933C67.6165 87.7593 67.6962 88.0514 67.6962 88.3693V91.6692C67.6962 91.9872 67.6165 92.2825 67.457 92.5551C67.3039 92.8211 67.0966 93.0353 66.8351 93.1975C66.5735 93.3533 66.2865 93.4311 65.9739 93.4311H64.1559H63.4861V86.6172H64.4429H65.9739ZM66.7394 88.3693C66.7394 88.1552 66.666 87.9735 66.5193 87.8242C66.3726 87.6685 66.1908 87.5906 65.9739 87.5906H64.4429V92.448H65.9739C66.1844 92.448 66.363 92.3733 66.5097 92.2241C66.6628 92.0683 66.7394 91.8834 66.7394 91.6692V88.3693Z" fill="black"/>
<path d="M73.4336 91.1923V93.4311H72.4768V91.8542H70.1803V93.4311H69.2235V91.1923L70.8501 86.6172H71.807L73.4336 91.1923ZM70.3525 90.8808H72.3045L71.3381 88.1552H71.319L70.3525 90.8808Z" fill="black"/>
<path d="M81.6551 87.5906V89.664H84.5256V90.6374H81.6551V93.4311H80.6982V89.664V86.6172H84.9083V87.5906H81.6551Z" fill="black"/>
<path d="M89.0191 87.5906V92.4577H90.6457V93.4311H88.0622H86.4356V92.4577H88.0622V87.5906H86.4356V86.6172H89.0191H90.6457V87.5906H89.0191Z" fill="black"/>
<path d="M96.3831 91.6692C96.3831 91.9548 96.3193 92.2208 96.1917 92.4674C96.0705 92.714 95.9047 92.9185 95.6942 93.0807L96.3831 94.2293L95.5411 94.7063L94.766 93.4311H94.6608H93.8953C93.5827 93.4311 93.2957 93.3533 93.0341 93.1975C92.7726 93.0353 92.5621 92.8211 92.4026 92.5551C92.2495 92.2825 92.173 91.9872 92.173 91.6692V88.3693C92.173 88.0514 92.2495 87.7593 92.4026 87.4933C92.5621 87.2207 92.7726 87.0066 93.0341 86.8508C93.2957 86.6951 93.5827 86.6172 93.8953 86.6172H94.6608C94.9733 86.6172 95.2604 86.6951 95.5219 86.8508C95.7898 87.0066 96.0004 87.2207 96.1535 87.4933C96.3065 87.7593 96.3831 88.0514 96.3831 88.3693V91.6692ZM93.1298 91.6692C93.1298 91.8834 93.2032 92.0683 93.3499 92.2241C93.503 92.3733 93.6848 92.448 93.8953 92.448H94.6608C94.8713 92.448 95.0499 92.3733 95.1966 92.2241C95.3497 92.0683 95.4262 91.8834 95.4262 91.6692V88.3693C95.4262 88.1487 95.3529 87.9638 95.2062 87.8145C95.0595 87.6652 94.8777 87.5906 94.6608 87.5906H93.8953C93.6784 87.5906 93.4966 87.6685 93.3499 87.8242C93.2032 87.9735 93.1298 88.1552 93.1298 88.3693V91.6692Z" fill="black"/>
<path d="M102.12 91.6692C102.12 91.9872 102.041 92.2825 101.881 92.5551C101.728 92.8211 101.521 93.0353 101.259 93.1975C100.998 93.3533 100.711 93.4311 100.398 93.4311H99.6327C99.3201 93.4311 99.0298 93.3533 98.7619 93.1975C98.5004 93.0353 98.2931 92.8211 98.14 92.5551C97.9869 92.2825 97.9103 91.9872 97.9103 91.6692V86.6172H98.8672V91.6692C98.8672 91.8834 98.9405 92.0683 99.0872 92.2241C99.2403 92.3733 99.4221 92.448 99.6327 92.448H100.398C100.609 92.448 100.787 92.3733 100.934 92.2241C101.087 92.0683 101.164 91.8834 101.164 91.6692V86.6172H102.12V91.6692Z" fill="black"/>
<path d="M104.605 87.5906V89.372H107.475V90.3454H104.605V92.4577H107.858V93.4311H103.648V90.3454V87.5906V86.6172H107.858V87.5906H104.605Z" fill="black"/>
<path d="M113.595 86.6172V93.4311H112.638V88.7587L111.748 90.6861H111.232L110.342 88.7587V93.4311H109.385V86.6172H110.342L111.49 89.1578L112.638 86.6172H113.595Z" fill="black"/>
<path d="M121.817 91.2312V91.6206C121.817 91.8477 121.896 92.0456 122.056 92.2144C122.222 92.3766 122.416 92.4577 122.64 92.4577H123.281C123.523 92.4577 123.721 92.3896 123.874 92.2533C124.033 92.1105 124.113 91.9321 124.113 91.7179C124.113 91.5297 124.053 91.3545 123.931 91.1923C123.81 91.03 123.657 90.884 123.472 90.7542C123.293 90.6244 123.045 90.4654 122.726 90.2772C122.349 90.0566 122.043 89.8619 121.807 89.6932C121.571 89.518 121.37 89.3103 121.204 89.0702C121.038 88.8236 120.955 88.5446 120.955 88.2331C120.955 87.9216 121.029 87.6425 121.176 87.3959C121.329 87.1493 121.539 86.9579 121.807 86.8216C122.081 86.6853 122.391 86.6172 122.735 86.6172H123.185C123.51 86.6172 123.81 86.6983 124.084 86.8605C124.359 87.0228 124.576 87.2434 124.735 87.5225C124.895 87.795 124.974 88.0968 124.974 88.4277V88.7198H124.017V88.4277C124.017 88.1941 123.934 87.9962 123.769 87.834C123.609 87.6717 123.415 87.5906 123.185 87.5906H122.735C122.48 87.5906 122.279 87.649 122.132 87.7658C121.986 87.8761 121.912 88.0319 121.912 88.2331C121.912 88.4277 122.005 88.603 122.19 88.7587C122.381 88.9145 122.681 89.1124 123.089 89.3525C123.498 89.5926 123.832 89.81 124.094 90.0047C124.362 90.1994 124.592 90.4427 124.783 90.7348C124.974 91.0203 125.07 91.348 125.07 91.7179C125.07 92.0359 124.99 92.3279 124.831 92.594C124.678 92.8536 124.464 93.058 124.19 93.2072C123.915 93.3565 123.612 93.4311 123.281 93.4311H122.64C122.314 93.4311 122.014 93.35 121.74 93.1878C121.472 93.0255 121.259 92.8081 121.099 92.5356C120.94 92.2565 120.86 91.9515 120.86 91.6206V91.2312H121.817Z" fill="black"/>
<path d="M130.807 91.1923V93.4311H129.85V91.8542H127.554V93.4311H126.597V91.1923L128.224 86.6172H129.181L130.807 91.1923ZM127.726 90.8808H129.678L128.712 88.1552H128.693L127.726 90.8808Z" fill="black"/>
<path d="M135.913 89.9268C136.111 90.0891 136.264 90.2902 136.372 90.5303C136.487 90.764 136.545 91.017 136.545 91.2896V91.679C136.545 91.997 136.468 92.2922 136.315 92.5648C136.162 92.8309 135.951 93.0418 135.684 93.1975C135.422 93.3533 135.135 93.4311 134.822 93.4311H132.966H132.335V86.6172H133.291H134.631C134.944 86.6172 135.231 86.6951 135.492 86.8508C135.76 87.0066 135.971 87.2207 136.124 87.4933C136.277 87.7593 136.353 88.0514 136.353 88.3693V88.7587C136.353 88.9794 136.315 89.1935 136.239 89.4012C136.162 89.6023 136.054 89.7776 135.913 89.9268ZM133.291 87.5906V89.5374H134.631C134.848 89.5374 135.03 89.4628 135.176 89.3136C135.323 89.1643 135.396 88.9794 135.396 88.7587V88.3693C135.396 88.1487 135.323 87.9638 135.176 87.8145C135.03 87.6652 134.848 87.5906 134.631 87.5906H133.291ZM135.588 91.2896C135.588 91.069 135.514 90.884 135.368 90.7348C135.221 90.5855 135.039 90.5109 134.822 90.5109H133.291V92.4577H134.822C135.039 92.4577 135.221 92.3831 135.368 92.2338C135.514 92.0846 135.588 91.8996 135.588 91.679V91.2896Z" fill="black"/>
<path d="M139.029 87.5906V89.372H141.899V90.3454H139.029V92.4577H142.282V93.4311H138.072V90.3454V87.5906V86.6172H142.282V87.5906H139.029Z" fill="black"/>
<path d="M148.019 86.6172V93.4311H146.632L144.766 88.2525V93.4311H143.809V86.6172H145.197L147.063 91.7958V86.6172H148.019Z" fill="black"/>
<path d="M152.035 86.6172C152.347 86.6172 152.634 86.6951 152.896 86.8508C153.157 87.0066 153.365 87.2207 153.518 87.4933C153.677 87.7593 153.757 88.0514 153.757 88.3693V91.6692C153.757 91.9872 153.677 92.2825 153.518 92.5551C153.365 92.8211 153.157 93.0353 152.896 93.1975C152.634 93.3533 152.347 93.4311 152.035 93.4311H150.216H149.547V86.6172H150.504H152.035ZM152.8 88.3693C152.8 88.1552 152.727 87.9735 152.58 87.8242C152.433 87.6685 152.251 87.5906 152.035 87.5906H150.504V92.448H152.035C152.245 92.448 152.424 92.3733 152.57 92.2241C152.723 92.0683 152.8 91.8834 152.8 91.6692V88.3693Z" fill="black"/>
<path d="M157.006 93.4311C156.694 93.4311 156.407 93.3533 156.145 93.1975C155.884 93.0353 155.673 92.8211 155.514 92.5551C155.361 92.2825 155.284 91.9872 155.284 91.6692V88.3693C155.284 88.0514 155.361 87.7593 155.514 87.4933C155.673 87.2207 155.884 87.0066 156.145 86.8508C156.407 86.6951 156.694 86.6172 157.006 86.6172H157.772C158.084 86.6172 158.371 86.6951 158.633 86.8508C158.901 87.0066 159.111 87.2207 159.265 87.4933C159.418 87.7593 159.494 88.0514 159.494 88.3693V91.6692C159.494 91.9872 159.418 92.2825 159.265 92.5551C159.111 92.8211 158.901 93.0353 158.633 93.1975C158.371 93.3533 158.084 93.4311 157.772 93.4311H157.006ZM157.772 92.448C157.982 92.448 158.161 92.3733 158.308 92.2241C158.461 92.0683 158.537 91.8834 158.537 91.6692V88.3693C158.537 88.1487 158.464 87.9638 158.317 87.8145C158.171 87.6652 157.989 87.5906 157.772 87.5906H157.006C156.79 87.5906 156.608 87.6685 156.461 87.8242C156.314 87.9735 156.241 88.1552 156.241 88.3693V91.6692C156.241 91.8834 156.314 92.0683 156.461 92.2241C156.614 92.3733 156.796 92.448 157.006 92.448H157.772Z" fill="black"/>
<path d="M0 46.6895H59.038V76.0152H0V46.6895Z" fill="#FFE706"/>
<path d="M0 6.1809H8.79821C17.5186 6.1809 19.638 9.44779 19.638 14.9734V26.3735C19.638 30.92 18.5589 35.9221 8.78849 35.9221H0V6.1809ZM6.3386 32.0155H8.37045C12.5411 32.0155 13.173 30.0767 13.173 26.994V14.605C13.173 11.8713 12.5022 10.1264 8.33156 10.1264H6.3386V32.0155Z" fill="black"/>
<path d="M42.5036 14.0718V27.9634C42.5036 33.6634 39.1593 36.3584 32.1985 36.3584C25.2377 36.3584 22.5059 33.5956 22.5059 28.0409V14.0428C22.5059 8.34267 26.4724 5.74467 32.5971 5.74467C38.7218 5.74467 42.5036 8.35237 42.5036 14.0718ZM28.9612 13.6259V28.5838C28.9612 31.0557 30.1958 32.219 32.4805 32.219C34.9401 32.219 36.0483 31.1333 36.0483 28.5256V13.5968C36.0483 11.2315 35.047 9.93249 32.4707 9.93249C30.1861 9.93249 28.9612 11.1152 28.9612 13.6356V13.6259Z" fill="black"/>
<path d="M45.9743 35.9221V6.1809H53.3142C54.9572 10.3784 59.857 25.0552 60.2945 26.6353H60.3625C60.0709 22.9806 60.0514 18.7928 60.0514 13.907V6.1809H65.9039V35.9221H58.8362C57.5432 32.3644 52.0698 16.0591 51.6615 14.8086H51.6032C51.9046 18.4051 51.8754 22.4378 51.8754 27.7889V35.9221H45.9743Z" fill="black"/>
<path d="M68.6941 15.5065C69.8801 11.8616 70.5995 7.81919 70.5995 4.8916H76.384C76.2187 9.19574 74.4688 13.7422 73.3216 15.5065H68.6941Z" fill="black"/>
<path d="M84.9975 10.4366H78.3964V6.1809H97.9761V10.4366H91.3361V35.9221H84.9975V10.4366Z" fill="black"/>
<path d="M69.4112 50.7763H62.9297V46.6009H82.1545V50.7763H75.6349V75.7813H69.4112V50.7763Z" fill="black"/>
<path d="M103.642 54.343V67.9726C103.642 73.5652 100.358 76.2093 93.5234 76.2093C86.6887 76.2093 84.0064 73.4986 84.0064 68.0487V54.3145C84.0064 48.7219 87.901 46.1729 93.9147 46.1729C99.9285 46.1729 103.642 48.7314 103.642 54.343ZM90.3447 53.9055V68.5813C90.3447 71.0067 91.557 72.148 93.8002 72.148C96.2152 72.148 97.3034 71.0828 97.3034 68.5242V53.8769C97.3034 51.5562 96.3202 50.2817 93.7906 50.2817C91.5474 50.2817 90.3447 51.4421 90.3447 53.915V53.9055Z" fill="black"/>
<path d="M134.331 64.929C134.331 59.9736 134.407 53.7913 134.531 50.4529H134.474C133.548 55.5129 131.314 67.3353 129.568 75.7908H123.697C122.399 68.2104 120.136 55.7507 119.22 50.4149H119.096C119.22 53.8199 119.401 60.4207 119.401 65.4331V75.7813H113.76V46.6009H123.029C124.604 54.0196 126.217 62.3324 126.761 66.4223H126.818C127.477 62.2849 129.663 53.6011 131.276 46.6009H140.24V75.7813H134.331V64.929Z" fill="black"/>
<path d="M158.643 62.4561H149.775V71.6439H159.998L159.206 75.7813H143.542V46.6009H159.13V50.7763H149.765V58.3092H158.633V62.4466L158.643 62.4561Z" fill="black"/>
<path d="M101.844 0H159.552V41.4562H101.844V0Z" fill="#FFE706"/>
<path d="M107.219 6.33008H113.553V32.0258H123.88L123.345 36.1351H107.219V6.33008Z" fill="black"/>
<path d="M132.246 28.1729L130.808 36.1488H124.367L130.983 6.34375H139.93L146.799 36.1488H140.183L138.57 28.1729H132.256H132.246ZM137.812 23.947C136.87 18.8856 135.976 14.0767 135.51 10.7154H135.277C135.102 13.1733 133.868 19.5559 133.043 23.947H137.812Z" fill="black"/>
<path d="M154.943 6.33008V36.1351H148.609V6.33008H154.943Z" fill="black"/>
</svg>
