<svg width="105" height="50" viewBox="0 0 105 50" fill="none" xmlns="http://www.w3.org/2000/svg">
<path d="M0.5 30.4941H39.0591V49.6475H0.5V30.4941Z" fill="black"/>
<path d="M0.5 4.03641H6.24632C11.9418 4.03641 13.326 6.17009 13.326 9.77898V17.2247C13.326 20.1941 12.6212 23.4611 6.23997 23.4611H0.5V4.03641ZM4.63989 20.9096H5.96694C8.69089 20.9096 9.1036 19.6433 9.1036 17.6299V9.53839C9.1036 7.75294 8.66549 6.61329 5.94154 6.61329H4.63989V20.9096Z" fill="black"/>
<path d="M28.2601 9.19016V18.263C28.2601 21.9859 26.0759 23.746 21.5296 23.746C16.9834 23.746 15.1991 21.9416 15.1991 18.3137V9.17117C15.1991 5.44831 17.7898 3.7515 21.7899 3.7515C25.7901 3.7515 28.2601 5.45464 28.2601 9.19016ZM19.4152 8.89892V18.6683C19.4152 20.2828 20.2216 21.0425 21.7138 21.0425C23.3202 21.0425 24.044 20.3334 24.044 18.6303V8.87992C24.044 7.33507 23.39 6.48666 21.7074 6.48666C20.2153 6.48666 19.4152 7.25909 19.4152 8.90525V8.89892Z" fill="black"/>
<path d="M30.5269 23.4611V4.03641H35.3208C36.3939 6.7779 39.594 16.3636 39.8797 17.3956H39.9242C39.7337 15.0087 39.721 12.2736 39.721 9.08253V4.03641H43.5434V23.4611H38.9273C38.0828 21.1375 34.508 10.4881 34.2414 9.67135H34.2033C34.4001 12.0203 34.3811 14.6542 34.3811 18.1491V23.4611H30.5269Z" fill="black"/>
<path d="M45.3657 10.1272C46.1404 7.74661 46.6102 5.10642 46.6102 3.19434H50.3882C50.2803 6.00547 49.1373 8.9749 48.3881 10.1272H45.3657Z" fill="black"/>
<path d="M56.0139 6.81589H51.7026V4.03641H64.4905V6.81589H60.1538V23.4611H56.0139V6.81589Z" fill="black"/>
<path d="M45.8348 33.1629H41.6016V30.4358H54.1578V33.1629H49.8996V49.4942H45.8348V33.1629Z" fill="black"/>
<path d="M68.1915 35.4924V44.3942C68.1915 48.0468 66.0469 49.7738 61.583 49.7738C57.1191 49.7738 55.3672 48.0034 55.3672 44.4439V35.4737C55.3672 31.8211 57.9109 30.1562 61.8386 30.1562C65.7663 30.1562 68.1915 31.8273 68.1915 35.4924ZM59.5069 35.2066V44.7917C59.5069 46.3758 60.2987 47.1212 61.7638 47.1212C63.3411 47.1212 64.0518 46.4255 64.0518 44.7545V35.188C64.0518 33.6722 63.4097 32.8398 61.7576 32.8398C60.2925 32.8398 59.5069 33.5977 59.5069 35.2128V35.2066Z" fill="black"/>
<path d="M88.2353 42.4063C88.2353 39.1699 88.2852 35.1321 88.3663 32.9517H88.3288C87.7241 36.2564 86.2652 43.978 85.1243 49.5004H81.2901C80.4423 44.5495 78.9647 36.4117 78.3662 32.9268H78.2851C78.3662 35.1507 78.4846 39.4618 78.4846 42.7356V49.4942H74.8001V30.4358H80.8537C81.8824 35.2812 82.936 40.7105 83.2914 43.3816H83.3288C83.759 40.6794 85.1867 35.0078 86.2403 30.4358H92.0945V49.4942H88.2353V42.4063Z" fill="black"/>
<path d="M104.114 40.7912H98.3223V46.792H104.999L104.482 49.4942H94.2512V30.4358H104.432V33.1629H98.3161V38.0828H104.108V40.785L104.114 40.7912Z" fill="black"/>
<path d="M67.0156 0H104.707V27.076H67.0156V0Z" fill="black"/>
<path d="M70.5273 4.13379H74.6643V20.9163H81.409L81.06 23.6002H70.5273V4.13379Z" fill="#FFE706"/>
<path d="M86.8723 18.3997L85.9333 23.609H81.7266L86.0475 4.14258H91.8912L96.3771 23.609H92.0562L91.0029 18.3997H86.8787H86.8723ZM90.508 15.6397C89.8925 12.3339 89.3088 9.19318 89.0042 6.99782H88.852C88.7378 8.6031 87.9319 12.7717 87.3926 15.6397H90.508Z" fill="#FFE706"/>
<path d="M101.696 4.13379V23.6002H97.5586V4.13379H101.696Z" fill="#FFE706"/>
</svg>
