<svg width="127" height="42" viewBox="0 0 127 42" fill="none" xmlns="http://www.w3.org/2000/svg">
<path d="M126.121 0.617188H73.6211V18.62H126.121V0.617188Z" fill="black"/>
<path d="M29.5357 23.1875H0.519531V41.1904H29.5357V23.1875Z" fill="black"/>
<path d="M37.2055 35.6816V36.9091C37.2055 38.0756 37.5996 38.6171 38.66 38.6171C39.7203 38.6171 39.9836 37.8137 39.9836 36.9805C39.9836 35.3082 39.5556 34.8231 37.0893 33.3085C34.37 31.6183 32.9714 30.6155 32.9714 28.0059C32.9714 25.4765 34.1127 23.1406 38.6879 23.1406C43.5411 23.1406 44.2617 25.5718 44.2617 27.6041V28.6248H39.8733V27.558C39.8733 26.4838 39.6321 25.9512 38.7144 25.9512C37.857 25.9512 37.5805 26.4927 37.5805 27.4955C37.5805 28.5638 37.8452 29.0905 39.8424 30.2346C43.394 32.2789 44.675 33.429 44.675 36.3482C44.675 39.1245 43.3837 41.4068 38.585 41.4068C33.9788 41.4068 32.6641 39.3685 32.6641 36.741V35.6816H37.2055Z" fill="black"/>
<path d="M50.4562 36.9304L49.8605 41.1485H45.125L48.5399 23.4238H55.4652L58.961 41.1485H54.1299L53.4637 36.9304H50.4562ZM53.0695 33.9235C52.7269 31.6546 52.246 28.2057 52.0195 26.5081H51.8371C51.7533 27.743 51.1797 31.7319 50.8606 33.9235H53.0695Z" fill="black"/>
<path d="M59.8906 23.4199H65.5997C69.7029 23.4199 71.6853 24.7233 71.6853 27.4639V28.1676C71.6853 30.5705 70.4676 31.3248 69.3323 31.6432C70.447 31.9809 72.0868 32.6386 72.0868 35.1084V36.5203C72.0868 39.6165 70.322 41.1445 65.9101 41.1445H59.8906V23.4199ZM65.1321 30.3964C66.6983 30.3964 67.2381 30.0274 67.2381 28.672V27.7555C67.2381 26.6203 66.741 26.1055 65.2688 26.1055H64.3967V30.3964H65.1321ZM64.3967 38.4843H65.3262C66.9836 38.4843 67.3763 37.9219 67.3763 36.6081V34.9819C67.3763 33.6072 66.9351 33.0209 65.0232 33.0209H64.3967V38.4843Z" fill="black"/>
<path d="M83.1768 33.3155H78.1971V38.1465H84.0342L83.4768 41.1445H73.5469V23.4199H83.44V26.4343H78.1971V30.319H83.1768V33.3155Z" fill="black"/>
<path d="M84.9727 41.1445V23.4199H90.1112C90.8788 25.5832 93.2981 33.6101 93.4937 34.3883H93.6069C93.3496 32.03 93.1848 28.8059 93.1848 26.3316V23.4199H97.4968V41.1445H92.3039C91.8039 39.4573 89.1626 30.2833 89.0082 29.7194H88.8832C89.064 31.8024 89.2052 35.3316 89.2052 38.1168V41.1445H84.9727Z" fill="black"/>
<path d="M99.6646 23.4199H105.374C110.349 23.4199 112.067 25.0848 112.067 28.7538V35.4164C112.067 38.4709 111.184 41.1445 105.69 41.1445H99.6602L99.6646 23.4199ZM104.315 38.3965H105.221C107.041 38.3965 107.343 37.5261 107.343 36.1424V28.2048C107.343 26.8955 106.943 26.1843 105.184 26.1843H104.315V38.3965Z" fill="black"/>
<path d="M126.119 28.1613V36.3846C126.119 39.9018 123.863 41.409 119.649 41.409C115.642 41.409 113.582 39.8632 113.582 36.4188V28.0691C113.582 24.647 116.144 23.1592 119.863 23.1592C123.6 23.1532 126.119 24.6217 126.119 28.1613ZM118.273 27.7774V36.8369C118.273 37.9319 118.785 38.5033 119.824 38.5033C120.906 38.5033 121.396 37.9855 121.396 36.8205V27.7447C121.396 26.6378 120.978 26.0709 119.81 26.0709C118.822 26.0768 118.273 26.6021 118.273 27.7774Z" fill="black"/>
<path d="M0.34375 0.875977H9.3398V3.08244H3.58656V8.21549H9.04273V10.4234H3.58656V18.6199H0.351103L0.34375 0.875977Z" fill="black"/>
<path d="M14.087 0.875977V18.6199H10.8516V0.875977H14.087Z" fill="black"/>
<path d="M27.4599 5.43765V14.0002C27.4599 17.2808 25.5848 18.8699 21.6964 18.8699C17.8462 18.8699 16.2461 17.1782 16.2461 14.0374V5.42723C16.2461 2.19118 18.3815 0.625977 21.9067 0.625977C25.5333 0.627464 27.4599 2.28045 27.4599 5.43765ZM19.5492 5.23976V14.2843C19.5492 15.9775 20.3845 16.7125 21.8449 16.7125C23.4053 16.7125 24.1568 16.0147 24.1568 14.2248V5.23976C24.1568 3.63141 23.445 2.79971 21.8346 2.79971C20.3228 2.79525 19.5492 3.56297 19.5492 5.23976ZM25.9378 17.1574L29.1394 19.0127L27.2099 20.6806L23.3435 18.4488L25.9378 17.1574Z" fill="black"/>
<path d="M32.7628 0.875977V14.4971C32.7628 15.8645 33.3922 16.711 34.9909 16.711C36.6262 16.711 37.1689 15.8347 37.1689 14.5046V0.875977H40.4206V14.4436C40.4206 17.2199 38.7161 18.8699 34.9291 18.8699C31.2921 18.8699 29.5273 17.4059 29.5273 14.4644V0.875977H32.7628Z" fill="black"/>
<path d="M51.5497 10.3089H46.1906V16.4313H52.3232L51.9026 18.6199H42.9492V0.875977H51.8511V3.08244H46.1906V8.12175H51.5497V10.3089Z" fill="black"/>
<path d="M65.7516 11.6807C65.7516 8.56513 65.8105 4.91546 65.8825 2.93961H65.8458C65.2678 5.9748 63.7192 13.4229 62.5691 18.6199H59.4719C58.6086 14.03 57.0321 6.13251 56.46 2.92027H56.3879C56.46 4.9839 56.5791 9.00255 56.5791 12.0496V18.6199H53.6172V0.875977H58.438C59.541 5.69509 60.769 11.3608 61.0955 13.7517H61.1308C61.5191 11.3623 63.0559 5.41984 64.1721 0.875977H68.8533V18.6199H65.7516V11.6807Z" fill="black"/>
</svg>
