<svg width="24" height="24" viewBox="0 0 24 24" fill="none" xmlns="http://www.w3.org/2000/svg">
<path d="M16.6667 15.1667H15.6133L15.24 14.8067C16.5467 13.2867 17.3333 11.3133 17.3333 9.16667C17.3333 4.38 13.4533 0.5 8.66667 0.5C3.88 0.5 0 4.38 0 9.16667C0 13.9533 3.88 17.8333 8.66667 17.8333C10.8133 17.8333 12.7867 17.0467 14.3067 15.74L14.6667 16.1133V17.1667L21.3333 23.82L23.32 21.8333L16.6667 15.1667ZM8.66667 15.1667C5.34667 15.1667 2.66667 12.4867 2.66667 9.16667C2.66667 5.84667 5.34667 3.16667 8.66667 3.16667C11.9867 3.16667 14.6667 5.84667 14.6667 9.16667C14.6667 12.4867 11.9867 15.1667 8.66667 15.1667Z" fill="black"/>
</svg>
