<svg width="51" height="26" viewBox="0 0 51 26" fill="none" xmlns="http://www.w3.org/2000/svg">
<g clip-path="url(#clip0_4000_5607)">
<path d="M12.123 0H0.4375V25.9979H12.123V0Z" fill="#FFE706"/>
<path d="M16.6953 0.386719H30.3836V3.57149H21.6295V10.9826H29.9316V14.1738H21.6295V26.0045H16.7065L16.6953 0.386719Z" fill="white"/>
<path d="M39.3941 17.9706V19.6886C39.3941 21.3229 39.9759 22.0809 41.5423 22.0809C43.1087 22.0809 43.4936 20.9578 43.4936 19.7852C43.4936 17.4402 42.8603 16.7615 39.2173 14.6312C35.1893 12.2689 33.1329 10.858 33.1329 7.19865C33.1329 3.65095 34.8201 0.386719 41.5781 0.386719C48.7568 0.386719 49.8152 3.79483 49.8152 6.63814V8.06839H43.3258V6.58016C43.3258 5.0769 42.97 4.32741 41.6139 4.32741C40.3473 4.32741 39.9378 5.08764 39.9378 6.49426C39.9378 7.99752 40.3294 8.72768 43.2788 10.3319C48.5375 13.201 50.4194 14.818 50.4194 18.8983C50.4194 22.7896 48.5106 25.9851 41.4215 25.9851C34.6142 25.9851 32.6719 23.1268 32.6719 19.4438V17.9706H39.3941Z" fill="white"/>
</g>
<defs>
<clipPath id="clip0_4000_5607">
<rect width="49.98" height="26" fill="white" transform="translate(0.4375)"/>
</clipPath>
</defs>
</svg>
