<svg width="30" height="30" viewBox="0 0 30 30" fill="none" xmlns="http://www.w3.org/2000/svg">
<path d="M20.4686 4.0623C21.9177 4.06663 23.3063 4.64423 24.331 5.66896C25.3558 6.69369 25.9334 8.08227 25.9377 9.53145V20.4686C25.9334 21.9177 25.3558 23.3063 24.331 24.331C23.3063 25.3558 21.9177 25.9334 20.4686 25.9377H9.53145C8.08227 25.9334 6.69369 25.3558 5.66896 24.331C4.64423 23.3063 4.06663 21.9177 4.0623 20.4686V9.53145C4.06663 8.08227 4.64423 6.69369 5.66896 5.66896C6.69369 4.64423 8.08227 4.06663 9.53145 4.0623H20.4686ZM20.4686 1.875H9.53145C5.32031 1.875 1.875 5.32031 1.875 9.53145V20.4686C1.875 24.6797 5.32031 28.125 9.53145 28.125H20.4686C24.6797 28.125 28.125 24.6797 28.125 20.4686V9.53145C28.125 5.32031 24.6797 1.875 20.4686 1.875Z" fill="black"/>
<path d="M22.1092 9.53223C21.7847 9.53223 21.4675 9.43601 21.1977 9.25573C20.9279 9.07546 20.7176 8.81923 20.5934 8.51944C20.4693 8.21966 20.4368 7.88978 20.5001 7.57153C20.5634 7.25328 20.7196 6.96095 20.9491 6.73151C21.1785 6.50206 21.4709 6.34581 21.7891 6.2825C22.1074 6.2192 22.4372 6.25169 22.737 6.37586C23.0368 6.50004 23.293 6.71032 23.4733 6.98012C23.6536 7.24992 23.7498 7.56712 23.7498 7.8916C23.7503 8.10718 23.7081 8.32073 23.6259 8.51999C23.5436 8.71925 23.4228 8.90029 23.2703 9.05273C23.1179 9.20517 22.9368 9.326 22.7376 9.40829C22.5383 9.49057 22.3248 9.53269 22.1092 9.53223ZM15 10.6256C15.8653 10.6256 16.7112 10.8822 17.4307 11.3629C18.1502 11.8437 18.711 12.527 19.0422 13.3265C19.3733 14.1259 19.4599 15.0056 19.2911 15.8543C19.1223 16.703 18.7056 17.4826 18.0937 18.0945C17.4819 18.7064 16.7023 19.1231 15.8536 19.2919C15.0049 19.4607 14.1252 19.3741 13.3257 19.0429C12.5262 18.7118 11.8429 18.151 11.3622 17.4315C10.8814 16.712 10.6248 15.8661 10.6248 15.0008C10.626 13.8408 11.0874 12.7287 11.9076 11.9084C12.7279 11.0882 13.84 10.6268 15 10.6256ZM15 8.43828C13.7021 8.43828 12.4333 8.82317 11.3541 9.54426C10.2749 10.2654 9.43374 11.2903 8.93704 12.4894C8.44034 13.6886 8.31038 15.0081 8.5636 16.2811C8.81682 17.5541 9.44183 18.7234 10.3596 19.6412C11.2774 20.559 12.4467 21.184 13.7197 21.4372C14.9927 21.6904 16.3122 21.5604 17.5114 21.0637C18.7105 20.567 19.7354 19.7259 20.4565 18.6467C21.1776 17.5675 21.5625 16.2987 21.5625 15.0008C21.5625 13.2603 20.8711 11.5911 19.6404 10.3604C18.4097 9.12969 16.7405 8.43828 15 8.43828Z" fill="black"/>
</svg>
