<svg width="28" height="28" viewBox="0 0 28 28" fill="none" xmlns="http://www.w3.org/2000/svg">
<path d="M25.0256 0.875H3.11797C1.9209 0.875 0.875 1.73633 0.875 2.91934V24.8756C0.875 26.065 1.9209 27.125 3.11797 27.125H25.0191C26.2227 27.125 27.125 26.058 27.125 24.8756V2.91934C27.132 1.73633 26.2227 0.875 25.0256 0.875ZM9.01191 22.7557H5.25137V11.0633H9.01191V22.7557ZM7.26172 9.28555H7.23477C6.03125 9.28555 5.25195 8.38965 5.25195 7.26816C5.25195 6.12617 6.05176 5.25137 7.28223 5.25137C8.5127 5.25137 9.26562 6.11973 9.29258 7.26816C9.29199 8.38965 8.5127 9.28555 7.26172 9.28555ZM22.7557 22.7557H18.9951V16.3625C18.9951 14.8309 18.4479 13.7844 17.0873 13.7844C16.0479 13.7844 15.4326 14.4875 15.159 15.1725C15.0564 15.4186 15.0289 15.7537 15.0289 16.0959V22.7557H11.2684V11.0633H15.0289V12.6904C15.5762 11.9111 16.4311 10.7896 18.4203 10.7896C20.8889 10.7896 22.7563 12.4168 22.7563 15.9248L22.7557 22.7557Z" fill="black"/>
</svg>
