<svg width="148" height="49" viewBox="0 0 148 49" fill="none" xmlns="http://www.w3.org/2000/svg">
<g clip-path="url(#clip0_3984_5564)">
<path d="M148.003 0.5H86.2266V21.6839H148.003V0.5Z" fill="#FFE706"/>
<path d="M34.3543 27.0586H0.210938V48.2425H34.3543V27.0586Z" fill="#FFE706"/>
<path d="M43.3751 41.7599V43.2043C43.3751 44.5768 43.8389 45.2141 45.0866 45.2141C46.3343 45.2141 46.6441 44.2687 46.6441 43.2883C46.6441 41.3205 46.1405 40.7497 43.2384 38.9675C40.0387 36.9786 38.3929 35.7986 38.3929 32.7278C38.3929 29.7516 39.7358 27.0029 45.1195 27.0029C50.8302 27.0029 51.6782 29.8636 51.6782 32.2551V33.4562H46.5143V32.2009C46.5143 30.9368 46.2305 30.3101 45.1506 30.3101C44.1417 30.3101 43.8164 30.9473 43.8164 32.1273C43.8164 33.3844 44.1279 34.0041 46.478 35.3505C50.6572 37.756 52.1645 39.1093 52.1645 42.5442C52.1645 45.8111 50.6451 48.4967 44.9984 48.4967C39.5783 48.4967 38.0312 46.0982 38.0312 43.0064V41.7599H43.3751Z" fill="black"/>
<path d="M58.9685 43.2301L58.2676 48.1935H52.6953L56.7136 27.3369H64.8627L68.9761 48.1935H63.2913L62.5074 43.2301H58.9685ZM62.0436 39.6919C61.6404 37.022 61.0745 32.9638 60.808 30.9662H60.5934C60.4948 32.4193 59.8199 37.113 59.4444 39.6919H62.0436Z" fill="black"/>
<path d="M70.0703 27.332H76.7882C81.6164 27.332 83.9491 28.8657 83.9491 32.0905V32.9186C83.9491 35.7461 82.5163 36.6337 81.1803 37.0084C82.492 37.4058 84.4216 38.1796 84.4216 41.0858V42.7473C84.4216 46.3906 82.345 48.1886 77.1534 48.1886H70.0703V27.332ZM76.2379 35.5412C78.0809 35.5412 78.716 35.1071 78.716 33.5121V32.4337C78.716 31.0979 78.1311 30.4921 76.3989 30.4921H75.3727V35.5412H76.2379ZM75.3727 45.0583H76.4663C78.4167 45.0583 78.8787 44.3965 78.8787 42.8506V40.937C78.8787 39.3193 78.3595 38.6295 76.1099 38.6295H75.3727V45.0583Z" fill="black"/>
<path d="M97.4721 38.9762H91.6126V44.6608H98.481L97.8252 48.1886H86.1406V27.332H97.7819V30.879H91.6126V35.4502H97.4721V38.9762Z" fill="black"/>
<path d="M99.5781 48.1886V27.332H105.625C106.528 29.8776 109.375 39.3228 109.605 40.2385H109.738C109.435 37.4636 109.241 33.6697 109.241 30.7582V27.332H114.315V48.1886H108.205C107.616 46.2032 104.508 35.4082 104.327 34.7447H104.18C104.392 37.1957 104.559 41.3484 104.559 44.6258V48.1886H99.5781Z" fill="black"/>
<path d="M116.872 27.332H123.59C129.445 27.332 131.466 29.2911 131.466 33.6084V41.4482C131.466 45.0425 130.428 48.1886 123.962 48.1886H116.867L116.872 27.332ZM122.344 44.955H123.41C125.553 44.955 125.907 43.9308 125.907 42.3026V32.9624C125.907 31.4218 125.437 30.5849 123.367 30.5849H122.344V44.955Z" fill="black"/>
<path d="M148.003 32.9114V42.5877C148.003 46.7265 145.348 48.5 140.388 48.5C135.674 48.5 133.25 46.681 133.25 42.628V32.8028C133.25 28.7762 136.265 27.0254 140.641 27.0254C145.038 27.0184 148.003 28.7464 148.003 32.9114ZM138.77 32.4597V43.1199C138.77 44.4085 139.373 45.0808 140.594 45.0808C141.868 45.0808 142.444 44.4715 142.444 43.1007V32.4212C142.444 31.1186 141.953 30.4516 140.579 30.4516C139.416 30.4586 138.77 31.0766 138.77 32.4597Z" fill="black"/>
<path d="M0 0.804688H10.5856V3.40103H3.81582V9.44108H10.2361V12.0392H3.81582V21.684H0.00865251L0 0.804688Z" fill="black"/>
<path d="M16.1665 0.804688V21.684H12.3594V0.804688H16.1665Z" fill="black"/>
<path d="M31.9062 6.17263V16.2481C31.9062 20.1085 29.6998 21.9783 25.1243 21.9783C20.5938 21.9783 18.7109 19.9877 18.7109 16.2919V6.16037C18.7109 2.35252 21.2237 0.510742 25.3717 0.510742C29.6392 0.512493 31.9062 2.45756 31.9062 6.17263ZM22.5977 5.93978V16.5825C22.5977 18.5749 23.5806 19.4397 25.2991 19.4397C27.1351 19.4397 28.0194 18.6186 28.0194 16.5125V5.93978C28.0194 4.04723 27.1819 3.06857 25.2869 3.06857C23.508 3.06332 22.5977 3.9667 22.5977 5.93978ZM30.1151 19.9632L33.8825 22.1464L31.612 24.1089L27.0625 21.4828L30.1151 19.9632Z" fill="black"/>
<path d="M38.1509 0.804688V16.8327C38.1509 18.4416 38.8916 19.4378 40.7727 19.4378C42.697 19.4378 43.3356 18.4066 43.3356 16.8415V0.804688H47.1618V16.7697C47.1618 20.0366 45.1561 21.9781 40.7 21.9781C36.4204 21.9781 34.3438 20.2554 34.3438 16.7942V0.804688H38.1509Z" fill="black"/>
<path d="M60.2529 11.9044H53.9469V19.1087H61.1632L60.6683 21.684H50.1328V0.804688H60.6077V3.40103H53.9469V9.33079H60.2529V11.9044Z" fill="black"/>
<path d="M76.9583 13.5186C76.9583 9.8525 77.0275 5.55794 77.1123 3.23296H77.069C76.3889 6.80447 74.5667 15.5687 73.2134 21.684H69.5689C68.5531 16.283 66.698 6.99005 66.0248 3.2102H65.94C66.0248 5.63848 66.165 10.3672 66.165 13.9527V21.684H62.6797V0.804688H68.3524C69.6503 6.47533 71.0953 13.1421 71.4794 15.9556H71.521C71.9778 13.1439 73.7862 6.15144 75.0997 0.804688H80.608V21.684H76.9583V13.5186Z" fill="black"/>
</g>
<defs>
<clipPath id="clip0_3984_5564">
<rect width="148" height="48" fill="white" transform="translate(0 0.5)"/>
</clipPath>
</defs>
</svg>
