<svg width="31" height="26" viewBox="0 0 31 26" fill="none" xmlns="http://www.w3.org/2000/svg">
<path d="M30.9677 3.54878C29.8061 4.05352 28.577 4.38605 27.3194 4.53587C28.6411 3.76192 29.635 2.53237 30.1148 1.07781C28.8652 1.80851 27.5004 2.32121 26.0787 2.59394C25.4801 1.96654 24.7601 1.46742 23.9625 1.12693C23.165 0.786444 22.3065 0.611689 21.4394 0.613292C17.9284 0.613292 15.0871 3.41329 15.0871 6.8649C15.0846 7.34501 15.1396 7.82369 15.251 8.29071C12.7333 8.17269 10.2681 7.53044 8.01289 6.40507C5.7577 5.2797 3.76225 3.69598 2.15419 1.75523C1.59005 2.70627 1.2917 3.79138 1.29032 4.89716C1.29032 7.0649 2.42129 8.98103 4.12903 10.1036C3.11724 10.0796 2.12619 9.81181 1.24 9.32297V9.40039C1.24 12.4326 3.43355 14.9552 6.33677 15.5294C5.79083 15.675 5.22824 15.7487 4.66323 15.7488C4.26231 15.7495 3.8623 15.7106 3.46903 15.6326C4.27613 18.1165 6.62516 19.923 9.40774 19.9746C7.1467 21.7171 4.37072 22.6589 1.51613 22.652C1.00943 22.6512 0.503204 22.6211 0 22.5617C2.90399 24.416 6.27964 25.3969 9.72516 25.3875C21.4258 25.3875 27.8181 15.8585 27.8181 7.59394C27.8181 7.32297 27.811 7.052 27.7981 6.78749C29.0388 5.90494 30.1121 4.8082 30.9677 3.54878Z" fill="black"/>
</svg>
