<svg width="1317" height="741" viewBox="0 0 1317 741" fill="none" xmlns="http://www.w3.org/2000/svg">
<rect width="1317" height="740.812" fill="#ABABAB"/>
<g clip-path="url(#clip0_5026_72040)">
<path d="M709.256 305.087H666.881V319.618H709.256V305.087Z" fill="black"/>
<path d="M631.301 323.305H607.881V337.836H631.301V323.305Z" fill="black"/>
<path d="M637.488 333.389V334.38C637.488 335.321 637.806 335.758 638.662 335.758C639.518 335.758 639.73 335.11 639.73 334.437C639.73 333.088 639.385 332.696 637.394 331.474C635.199 330.109 634.07 329.3 634.07 327.194C634.07 325.152 634.991 323.267 638.684 323.267C642.602 323.267 643.183 325.229 643.183 326.869V327.693H639.641V326.832C639.641 325.965 639.446 325.535 638.706 325.535C638.014 325.535 637.791 325.972 637.791 326.782C637.791 327.644 638.004 328.069 639.616 328.992C642.483 330.643 643.517 331.571 643.517 333.927C643.517 336.168 642.475 338.01 638.601 338.01C634.883 338.01 633.822 336.365 633.822 334.244V333.389H637.488Z" fill="black"/>
<path d="M648.184 334.397L647.703 337.801H643.881L646.637 323.495H652.227L655.048 337.801H651.149L650.611 334.397H648.184ZM650.293 331.97C650.017 330.138 649.628 327.355 649.446 325.985H649.298C649.231 326.981 648.768 330.201 648.51 331.97H650.293Z" fill="black"/>
<path d="M655.799 323.492H660.407C663.719 323.492 665.319 324.544 665.319 326.756V327.324C665.319 329.264 664.336 329.873 663.42 330.13C664.319 330.402 665.643 330.933 665.643 332.926V334.066C665.643 336.565 664.218 337.798 660.657 337.798H655.799V323.492ZM660.029 329.123C661.294 329.123 661.729 328.825 661.729 327.731V326.992C661.729 326.075 661.328 325.66 660.14 325.66H659.436V329.123H660.029ZM659.436 335.651H660.186C661.524 335.651 661.841 335.197 661.841 334.137V332.824C661.841 331.715 661.485 331.242 659.942 331.242H659.436V335.651Z" fill="black"/>
<path d="M674.595 331.479H670.576V335.379H675.287L674.837 337.798H666.822V323.492H674.807V325.925H670.576V329.061H674.595V331.479Z" fill="black"/>
<path d="M676.045 337.798V323.492H680.192C680.812 325.238 682.765 331.717 682.923 332.345H683.014C682.806 330.442 682.673 327.839 682.673 325.842V323.492H686.154V337.798H681.962C681.559 336.437 679.427 329.032 679.302 328.577H679.201C679.347 330.258 679.461 333.107 679.461 335.355V337.798H676.045Z" fill="black"/>
<path d="M687.904 323.492H692.512C696.528 323.492 697.914 324.836 697.914 327.797V333.175C697.914 335.64 697.202 337.798 692.767 337.798H687.9L687.904 323.492ZM691.657 335.58H692.389C693.858 335.58 694.101 334.878 694.101 333.761V327.354C694.101 326.297 693.779 325.723 692.359 325.723H691.657V335.58Z" fill="black"/>
<path d="M709.258 327.319V333.956C709.258 336.795 707.437 338.011 704.035 338.011C700.802 338.011 699.139 336.764 699.139 333.984V327.244C699.139 324.482 701.206 323.281 704.208 323.281C707.225 323.276 709.258 324.462 709.258 327.319ZM702.925 327.009V334.321C702.925 335.205 703.338 335.666 704.176 335.666C705.05 335.666 705.445 335.248 705.445 334.308V326.982C705.445 326.089 705.108 325.631 704.166 325.631C703.368 325.636 702.925 326.06 702.925 327.009Z" fill="black"/>
<path d="M607.736 305.296H614.997V307.077H610.354V311.22H614.758V313.002H610.354V319.618H607.742L607.736 305.296Z" fill="black"/>
<path d="M618.828 305.296V319.618H616.217V305.296H618.828Z" fill="black"/>
<path d="M629.623 308.978V315.89C629.623 318.538 628.11 319.82 624.971 319.82C621.864 319.82 620.572 318.455 620.572 315.92V308.97C620.572 306.358 622.296 305.095 625.141 305.095C628.068 305.096 629.623 306.43 629.623 308.978ZM623.238 308.819V316.119C623.238 317.486 623.913 318.079 625.091 318.079C626.351 318.079 626.957 317.516 626.957 316.071V308.819C626.957 307.521 626.383 306.849 625.083 306.849C623.863 306.846 623.238 307.465 623.238 308.819ZM628.395 318.438L630.979 319.935L629.422 321.282L626.301 319.48L628.395 318.438Z" fill="black"/>
<path d="M633.902 305.296V316.29C633.902 317.394 634.411 318.077 635.701 318.077C637.021 318.077 637.459 317.37 637.459 316.296V305.296H640.083V316.247C640.083 318.488 638.708 319.82 635.651 319.82C632.715 319.82 631.291 318.638 631.291 316.264V305.296H633.902Z" fill="black"/>
<path d="M649.065 312.91H644.739V317.851H649.689L649.35 319.618H642.123V305.296H649.308V307.077H644.739V311.144H649.065V312.91Z" fill="black"/>
<path d="M660.527 314.017C660.527 311.502 660.574 308.556 660.632 306.962H660.603C660.136 309.411 658.886 315.423 657.958 319.618H655.458C654.761 315.913 653.489 309.539 653.027 306.946H652.969C653.027 308.612 653.123 311.855 653.123 314.315V319.618H650.732V305.296H654.624C655.514 309.186 656.505 313.759 656.768 315.688H656.797C657.11 313.76 658.351 308.963 659.252 305.296H663.03V319.618H660.527V314.017Z" fill="black"/>
</g>
<g clip-path="url(#clip1_5026_72040)">
<path d="M653.014 414.152L669.477 401.805L653.014 389.458V414.152ZM658.502 374.367C643.356 374.367 631.064 386.659 631.064 401.805C631.064 416.95 643.356 429.242 658.502 429.242C673.647 429.242 685.939 416.95 685.939 401.805C685.939 386.659 673.647 374.367 658.502 374.367ZM658.502 423.755C646.402 423.755 636.552 413.905 636.552 401.805C636.552 389.705 646.402 379.855 658.502 379.855C670.602 379.855 680.452 389.705 680.452 401.805C680.452 413.905 670.602 423.755 658.502 423.755Z" fill="white"/>
</g>
<defs>
<clipPath id="clip0_5026_72040">
<rect width="101.519" height="32.925" fill="white" transform="translate(607.74 305.088)"/>
</clipPath>
<clipPath id="clip1_5026_72040">
<rect width="65.85" height="65.85" fill="white" transform="translate(625.576 368.88)"/>
</clipPath>
</defs>
</svg>
