<svg width="128" height="69" viewBox="0 0 128 69" fill="none" xmlns="http://www.w3.org/2000/svg">
<path d="M6.00234 31.7997L0 0H7.18836C8.19979 6.86025 9.55136 17.411 9.89754 23.4163H10.021C11.0173 16.6855 12.8475 6.9656 14.0907 0H20.668C21.9745 7.2004 23.7806 16.1828 24.6836 23.1966H24.8221C25.3399 16.9866 26.6282 7.20341 27.6366 0H34.4698L27.9949 31.7997H21.0955C19.8673 24.6836 18.1395 16.1858 17.2033 9.63264H17.0799C16.0624 16.3243 14.1479 24.9455 12.8415 31.7997H6.00234Z" fill="white"/>
<path d="M43.7111 0V31.7997H36.9502V0H43.7111Z" fill="white"/>
<path d="M48.3649 0H55.0114V14.3647H55.0867C56.7573 11.219 60.505 4.37683 62.9132 0H70.4387L62.4677 12.3569L70.9233 31.7997H63.5604L57.841 17.4802L55.0114 21.7637V31.7997H48.3649V0Z" fill="white"/>
<path d="M78.7468 0V31.7997H71.9859V0H78.7468Z" fill="white"/>
<path d="M128 0H82.9235V31.7997H128V0Z" fill="white"/>
<path d="M63.7491 36.8102H1.59541V68.6099H63.7491V36.8102Z" fill="white"/>
<path d="M68.2266 36.7715H78.7488V62.3175H88.5989L87.5508 68.8152H68.2266V36.7715Z" fill="white"/>
<path d="M100.933 62.0771L100.403 68.8152H89.6793L94.3808 36.7715H111.123L115.757 68.8152H104.903L104.373 62.0771H100.933ZM103.911 55.7248C103.713 53.271 102.916 44.8981 102.727 43.1654H102.268C102.2 44.5599 101.54 52.5975 101.341 55.7248H103.911Z" fill="white"/>
<path d="M127.999 36.7715V68.8152H117.542V36.7715H127.999Z" fill="white"/>
</svg>
